<?xml version="1.0" encoding="iso-8859-1"?>
<!-- Generator: Adobe Illustrator 19.0.0, SVG Export Plug-In . SVG Version: 6.00 Build 0)  -->
<svg version="1.1" id="Capa_1" xmlns="http://www.w3.org/2000/svg" xmlns:xlink="http://www.w3.org/1999/xlink" x="0px" y="0px"
	 viewBox="0 0 512 512" style="enable-background:new 0 0 512 512;" xml:space="preserve">
<g>
	<g>
		<path d="M59.815,243.268c-2.733-3.106-7.466-3.406-10.57-0.673c-10.567,9.302-19.71,20.057-27.175,31.965
			c-2.197,3.505-1.137,8.127,2.368,10.324c1.237,0.775,2.612,1.145,3.971,1.145c2.493,0,4.931-1.244,6.352-3.512
			c6.697-10.683,14.9-20.332,24.381-28.679C62.247,251.105,62.548,246.372,59.815,243.268z"/>
	</g>
</g>
<g>
	<g>
		<path d="M43.457,432.744c-7.902-9.869-14.303-20.791-19.028-32.463c-1.552-3.835-5.919-5.683-9.752-4.132
			c-3.834,1.552-5.684,5.918-4.132,9.753c5.27,13.019,12.409,25.2,21.22,36.204c1.479,1.848,3.655,2.809,5.851,2.809
			c1.642,0,3.295-0.538,4.676-1.644C45.521,440.686,46.043,435.973,43.457,432.744z"/>
	</g>
</g>
<g>
	<g>
		<path d="M12.88,312.518c-4.024-0.95-8.059,1.544-9.009,5.57C1.302,328.978,0,340.223,0,351.509c0,2.786,0.08,5.602,0.237,8.367
			c0.227,3.985,3.529,7.064,7.471,7.064c0.143,0,0.288-0.004,0.433-0.012c4.129-0.235,7.287-3.774,7.051-7.903
			c-0.141-2.483-0.213-5.012-0.213-7.515c0-10.131,1.168-20.219,3.471-29.983C19.399,317.501,16.906,313.467,12.88,312.518z"/>
	</g>
</g>
<g>
	<g>
		<path d="M109.16,476.574c-12.106-3.468-23.635-8.688-34.27-15.513c-3.482-2.236-8.115-1.224-10.348,2.257
			c-2.235,3.481-1.224,8.114,2.257,10.348c11.862,7.614,24.727,13.438,38.236,17.308c0.689,0.197,1.383,0.292,2.066,0.292
			c3.257,0,6.255-2.142,7.196-5.429C115.436,481.861,113.136,477.713,109.16,476.574z"/>
	</g>
</g>
<g>
	<g>
		<path d="M289.164,334.79c-0.473-4.109-4.19-7.059-8.295-6.586c-4.109,0.472-7.059,4.186-6.586,8.295
			c0.568,4.947,0.856,9.997,0.856,15.012c0,12.68-1.819,25.208-5.406,37.236c-1.182,3.962,1.073,8.133,5.038,9.316
			c0.714,0.213,1.435,0.314,2.143,0.314c3.226,0,6.205-2.102,7.174-5.351c4.001-13.418,6.03-27.386,6.03-41.516
			C290.118,345.927,289.797,340.301,289.164,334.79z"/>
	</g>
</g>
<g>
	<g>
		<path d="M216.132,225.026c-12.276-6.912-25.458-11.978-39.18-15.057c-4.033-0.903-8.042,1.632-8.947,5.668
			c-0.906,4.036,1.632,8.042,5.668,8.947c12.295,2.759,24.108,7.299,35.11,13.494c1.162,0.654,2.423,0.965,3.668,0.965
			c2.616,0,5.158-1.374,6.533-3.816C221.013,231.622,219.736,227.056,216.132,225.026z"/>
	</g>
</g>
<g>
	<g>
		<path d="M197.653,478.887c-1.367-3.902-5.639-5.958-9.545-4.589c-11.863,4.159-24.289,6.564-36.932,7.149
			c-4.132,0.192-7.327,3.696-7.136,7.828c0.186,4.014,3.499,7.143,7.476,7.143c0.117,0,0.235-0.002,0.352-0.008
			c14.098-0.653,27.958-3.337,41.195-7.977C196.966,487.065,199.021,482.791,197.653,478.887z"/>
	</g>
</g>
<g>
	<g>
		<path d="M191.437,38.754c-2.136-3.541-6.74-4.68-10.282-2.543c-21.019,12.684-38.613,30.624-50.879,51.881
			c-12.648,21.919-19.333,46.954-19.333,72.401c0,16.627,2.771,32.817,8.232,48.267c-10.275,1.852-20.312,4.805-29.954,8.83
			c-3.817,1.593-5.62,5.979-4.027,9.797c1.2,2.874,3.983,4.606,6.915,4.606c0.962,0,1.939-0.186,2.882-0.58
			c10.64-4.442,21.821-7.415,33.276-8.891c0.484,0.098,0.975,0.166,1.475,0.166c0.995,0,2.006-0.199,2.977-0.621
			c0.38-0.165,0.733-0.364,1.071-0.581c2.836-1.303,4.666-4.3,4.325-7.576c-0.227-2.164-1.356-4.009-2.969-5.216
			c-6.12-15.315-9.225-31.51-9.225-48.201c0-45.996,23.541-87.662,62.973-111.457C192.435,46.9,193.574,42.296,191.437,38.754z"/>
	</g>
</g>
<g>
	<g>
		<path d="M392.822,208.765c5.462-15.458,8.237-31.655,8.237-48.273c0-79.985-65.073-145.059-145.059-145.059
			c-7.783,0-15.595,0.622-23.219,1.849c-4.084,0.658-6.862,4.501-6.204,8.585c0.658,4.084,4.503,6.861,8.585,6.204
			c6.839-1.101,13.85-1.659,20.838-1.659c71.726,0,130.08,58.354,130.08,130.08c0,16.009-2.866,31.576-8.507,46.348
			c-3.512-0.256-7.056-0.391-10.632-0.391c-23.28,0-45.519,5.35-66.098,15.902c-17.07,8.753-32.426,21.004-44.843,35.709
			c-1.007-1.194-2.026-2.378-3.072-3.541c-2.767-3.075-7.503-3.324-10.577-0.559c-3.075,2.767-3.325,7.502-0.559,10.577
			c1.698,1.887,3.321,3.831,4.901,5.807c-16.253,23.999-24.815,51.938-24.815,81.163c0,29.214,8.556,57.143,24.816,81.162
			c-6.316,7.9-13.513,15.057-21.497,21.31c-3.257,2.551-3.829,7.258-1.278,10.514c1.477,1.887,3.677,2.872,5.901,2.872
			c1.615,0,3.243-0.521,4.613-1.594c7.902-6.189,15.112-13.173,21.56-20.823c12.415,14.705,27.774,26.961,44.848,35.715
			c20.579,10.552,42.818,15.903,66.099,15.903c13.518,0,26.905-1.86,39.79-5.527c3.978-1.132,6.286-5.275,5.153-9.254
			c-1.132-3.978-5.277-6.286-9.254-5.153c-11.55,3.288-23.558,4.955-35.689,4.955c-41.456,0-79.475-19.079-104.298-52.331
			l-0.608-0.819c-16.472-22.415-25.178-49.017-25.178-76.931c0-24.286,6.597-47.576,19.14-67.957c2.44,3.974,4.668,8.079,6.67,12.3
			c1.281,2.701,3.969,4.283,6.773,4.283c1.075,0,2.167-0.233,3.204-0.724c3.737-1.772,5.33-6.238,3.559-9.976
			c-3.148-6.639-6.804-13.012-10.914-19.089c24.844-31.142,61.647-48.916,101.654-48.916c71.727,0,130.08,58.354,130.08,130.08
			c0,39.891-17.931,77.026-49.196,101.882c-3.238,2.574-3.775,7.286-1.201,10.523c2.575,3.238,7.285,3.776,10.523,1.201
			C492.006,437.402,512,395.994,512,351.509C512,280.355,460.503,221.005,392.822,208.765z"/>
	</g>
</g>
<g>
</g>
<g>
</g>
<g>
</g>
<g>
</g>
<g>
</g>
<g>
</g>
<g>
</g>
<g>
</g>
<g>
</g>
<g>
</g>
<g>
</g>
<g>
</g>
<g>
</g>
<g>
</g>
<g>
</g>
</svg>
